/* XPM */
static char *ab06f675148e4303ff58ff4adebe6fd4tFMwKrjPHhzuLvPe[] = {
/* columns rows colors chars-per-pixel */
"50 50 44 1 ",
"  c #BEC3C9",
". c #BDC2C8",
"X c #848F9A",
"o c #FEE389",
"O c #BABFC6",
"+ c #AEB5BD",
"@ c black",
"# c #FEB840",
"$ c #B3B9C0",
"% c #8B959F",
"& c #B7BCC3",
"* c #C1C6CB",
"= c #CBCFD4",
"- c #A3AAB4",
"; c #939BA5",
": c #EA9D30",
"> c #99A0AB",
", c #D2D5DA",
"< c #C8CCD1",
"1 c #9EA5B0",
"2 c #FECA53",
"3 c #ACB2BB",
"4 c #C4C9CE",
"5 c #D18D2D",
"6 c #A9AFB8",
"7 c #626C78",
"8 c #CED2D6",
"9 c #F9B33C",
"0 c #DC942D",
"q c #F2AD3C",
"w c #C68C3D",
"e c #ECA335",
"r c #A8957C",
"t c #BA8F55",
"y c #B19268",
"u c #9C9A98",
"i c #FDC552",
"p c #FCBE4A",
"a c #FBD371",
"s c #717A84",
"d c #A49889",
"f c #FEDD80",
"g c #7C858E",
"h c #FFE48A",
/* pixels */
"@@@@@@@@@@@@@@@@@@@@@@@@@@@@@@@@@@@@@@@@@@@@@@@@@@",
"&&+++++++++++++++++++++++++++++++++++++++++++++$+-",
">****    ...OOOOOO&&&&&&$$$$$$$$$$++++++++++++$.;%",
"X3,8888,,,,,,,,,,,,,,,,,,,,,,,,,8,,,88888=====<-X%",
"X-=          *******      ***444<<<<<======88,=%X%",
"X1=           ...OOO&&&$$$$&&OOO...   ...   .<=%X%",
"X1=         ...OO&&$$++3333+$$&&O..          <=%X%",
"X1=       ...OO&$$+366------63+$&OO.         <=%X%",
"X>=      ..OO&$+36--11>>ddu>1-63$&OO.        <=%X%",
"X>=     ..O&$+36-11udytw55wtru1-6+&O..       <=%X%",
"X>=    ..O&$36-1>dyw50eqe:055wr1-6+&O..      <=%X%",
"X>=    .O&$3-1>dtw0qaafofapq:05r1-3$&O.      <=%X%",
"X;=*  ..O$3-1dt50eiohhooohofaq0wd1-+$O..     <=;X%",
"X;<*  .O&+61r50e9#iooooooooohaq0w>16$&O.     <8;X%",
"X;<*  .O$+-1y09###pfooooooooofpe5r>-3$O.     <8;X%",
"X;<*  .O$3->t0#####foooooooooo290t;16$&O.    48;X%",
"X%<*  .&$61;t:#####ahooooooooof#e5r>-3$O.    48;X%",
"X%4*  .&$61uw:#####ahooooooooooiq0t>16$&O.   48;X%",
"X%4* .O&+61uwe#####2ooooooooooha#e5d1-+$O.   48;X%",
"X%4* .O&+-1d5q#####iooooooooooooiq0t>-6$&..  48;X%",
"X%4* .O&+->r5q#####pfoooooooooooi9:wd1-+&O.  48;X%",
"X%4* .O$3->y59#####pfooooooooooa99q5y>-3$O.. 48;X%",
"X%** .O$3->y09######ahooooooooa#999:wu16+&O. 4=;X%",
"X%*4 .O$3->t09######aoooooooofp9999q5y1-+&O. 4=;X%",
"X%*4 .O&+->r5q######i2222a22a#qq99990t>-3$O. 4=;X%",
"XX*4 .O&+61uw0######i2222222pe::eqq90t>-3$O. *=;X%",
"XX*4 ..&$61>y5q####p2222222iq::::::e0t>-3$O. *=;X%",
"XX 4  .O$3->uw:####p2222i22#:::::::05r>-+$O. *=;X%",
"XX 4  .O&+61;y5q###i2i2222pe:::::::5t;16+&O. *=;X%",
"XX 4  ..O$3->uw:##p222i222q:::::::05r>-3$&.. *=;X%",
"XX.4   .O3661;y5q#9#ii222pe:::::::5t;1-+$O.  *=;X%",
"XX.4    *363->uw:q::eq9pp9e:::::05wd>-3$&O.  *=;X%",
"XXO<    ** $61>y5500:::e999e::055tu;;13&O..  *=;X%",
"XXO<    ..O$3-1urtw5500eqqqe:05wr;>>;>3OO.   *=;X%",
"XXO<     .O&$3-1>;uryw5555555wyu;>-336O .    *=;X%",
"XXO<     ..O&$36-1>>;;dyyrrrdu;>1-6+O*4..    *=;X%",
"XX&<      ..O&$+36-11>>>;;;>>>1-63+$&O..     *=;X%",
"XX&<      ...O&$$+366---111---63+$&OO..      *=;X%",
"XX&<        ..OO&&$$++3366633++$&&O...       *=;X%",
"XX$<         ....OO&&&$$$$$$$&&OO...         *=;X%",
"XX$<             ...OOOOO&OOOOO...           *<;X%",
"XX$=               .............             *<;X%",
"XX+=                                          <;X%",
"XX+=                                          <;X%",
"XX+=                             ..          *<;X%",
"XX+=.           *******4444<<<<====888,,,,,,,,8;X%",
"XX&,===88888,,,,,,,,,,,,,,,,,8888====<<<44444<4>X%",
"X-6>>>;;;;;%%%%%XXXXXgXggggggggsgssssssssssssg16%%",
">>s7777777777777777777777777777777777777777777s%>%",
"@@@@@@@@@@@@@@@@@@@@@@@@@@@@@@@@@@@@@@@@@@@@@@@@@@"
};
