/* XPM */
static char *_187ac1beefa40f7b5d80e57b8d2c777jJiohzoLWoKWjjsc[] = {
/* columns rows colors chars-per-pixel */
"50 50 78 1 ",
"  c #BEC3C9",
". c #BFC4CA",
"X c #C0C5CB",
"o c #9FA7B0",
"O c #848F9A",
"+ c #8B95A0",
"@ c #CFD3D8",
"# c #949DA6",
"$ c #313232",
"% c #CBCFD3",
"& c black",
"* c #767F88",
"= c #2D2E2E",
"- c #CDD1D6",
"; c #AEB4BB",
": c #C3C8CD",
"> c #C6CACF",
", c #B4BAC0",
"< c #353636",
"1 c #202122",
"2 c #C8CCD1",
"3 c #412822",
"4 c #503730",
"5 c #B1B7BD",
"6 c #252728",
"7 c #828D98",
"8 c #602F24",
"9 c #432E29",
"0 c #3E3E3E",
"q c #502921",
"w c #BCC1C7",
"e c #939AA1",
"r c #D2D6DA",
"t c #525151",
"y c #A6ABB1",
"u c #1B1C1D",
"i c #ABB0B6",
"p c #523028",
"a c #6F747A",
"s c #585859",
"d c #141516",
"f c #443532",
"g c #2D1D19",
"h c #666668",
"j c #5E3930",
"k c #D5D8DC",
"l c #7D8185",
"z c #B9BEC4",
"x c #37221E",
"c c #6C6E70",
"v c #574A49",
"b c #656F7A",
"n c #665E5D",
"m c #594039",
"M c #8D9298",
"N c #DBDDE1",
"B c #484849",
"V c #481F12",
"C c #322826",
"Z c #9EA3AA",
"A c #695351",
"S c #8F4428",
"D c #97979A",
"F c #7A7A7D",
"G c #6B473E",
"H c #5F2619",
"J c #732912",
"K c #8E3412",
"L c #85868A",
"P c #707A84",
"I c #857B7A",
"U c #878081",
"Y c #7C6868",
"T c #7B7272",
"R c #A33514",
"E c #8F8B8D",
"W c #B04516",
"Q c #D24012",
/* pixels */
"r>.                        ....................XXw",
"5ww,,,,,,,,55555555555;;;;;;;;;;;;;;;;;;;;;;;;;woe",
"oy-rrrrrrrrrr@@@@@------%%%%%22>>>>:::XXXX.  w:5M+",
"oe%>X::::::>>>>>2222%%%------@@@@@rrrrkkkkkkkN@#7+",
"oe2:                  ,ee;.           .....X.%@eO+",
"o+2:                 .yccMX                 w2@eO+",
"o+>:                 .TnTA,.                 2@eO+",
"o+>:                 wAnIpZX                 2@eO+",
"o+::               .X;mAUqEXX.               2@eO+",
"o+::              .;iUqAU3GyD,.              >@eO+",
"oOX>             .#vYYHtF38F4n5.             >@eO+",
"oOX>              h3tj8tafHm9fZX             >@eO+",
"oO >             ws34ppBhf899=LX             >@eO+",
"oOw>            .5Bpfp400<8394c.             >@eO+",
"oOw>            .y03gq4<<<8xx3sw             >@#O+",
"oOz>            XD=9xp4<<<83xf0i.            >@#O+",
"oOz>            XL4jCp9=$=p30mmZX            >@#O+",
"o7,2            XFjUsCC====CaI4MX            :@#O+",
"o7,2            .amZs=$$$$$=cDjlX            :@#O+",
"o7,2            whmyB66$$$61tZmc.            :@#O+",
"o7,2            wn0c6u1$$$1u6s0FX            :@#O+",
"o752            Xa=6d11<0<11d16cz            :@#O+",
"o752           XM<gVg=6t#t1=gVVCaX           :@#O+",
"o75%          .XhVRJgudu6uddgHRHB;w.         :@#O+",
"o7;%         Xoa0gK1=VHKKKJJ=6KV=Ba;X        :-#O+",
"o7;%       . Mvf<uVg3QWSSSKQq1qu0t4s#..      :-#O+",
"o7;%      .zlmmLsd1ugRSnsnSRg16d0yIjmlz.     :-#O+",
"o7i%     .,h4Gee$u66dJWAhsSKd1611tZU4$c,X    X-#O+",
"o7i%    X;h=4hF<1u1=$gWSnGWV0B616=0sp99syX   X-#O+",
"o7i%   Xisf39CC$=6=0D<HWSSKuDs===<93gx9$v#   X-#O+",
"o7i%  .ot9pxgqq=$<$=s<dJQRd1t$<$$$98qxf93sz  X-#O+",
"o7i-  Xl9393qp9=$=$<66uu8xu61=$$==$f48q4vv,. X-#O+",
"o7y-  XEvtq8p<$$=$$1u66g=6g6116$$=0<<488Yew  X-#O+",
"o7y-  .,Lj84<<<$6=$6uddJqJVddu=$=$<<0Bf88UX  X-#O+",
"o7y-  Xyjq9tt<$$p3==B01VRJ1$ns<Cpj4<0clBqjD  X-#O+",
"o7y- .inq0aaBf4883tMyc$63C<0Iy#t3p8j4fnMImjU.X-#O+",
"o7o-.5AphMhfp88qx9TIG4tDleDvjGnv3xC888q4TDTtZX-#O+",
"o7o-zltEI4qHHp9x3444vFiXXX.iLn4f=x9mvAGj8GclE %#O+",
"o7o-5lFApGAYYf9f3<tli..    .XzehB4934TiiDYhc;X%#O+",
"o7o-XZaFE;wyv930c#5X.         X ,Mhv0FwXX w,w.%#O+",
"o7o- wwXX. wDhLiwX.             .X.;yw       .%#O+",
"o7Z-        X X.                   .X        .%#O+",
"o7Z-                                         .%#7+",
"o7Z-.                                        .%#7+",
"o7Z-.                             ...XXXXX:::>-#7+",
"o7Z@XXXXX:::::>>>222%%%---@@rrrkkkkkNNNNNNNNNNr#7+",
"oOi-%%%%%%%%22222>>>:::XX.  wzzz,,,55;;iiiiyy5 oO+",
"ooo7Llll*****PPPPPPPPPaaaaaaabbbbbbbbbbbbbbbbaMie+",
"zoL********************************************+yo",
"&&&&&&&&&&&&&&&&&&&&&&&&&&&&&&&&&&&&&&&&&&&&&&&&&&"
};
