/* XPM */
static char *_104734e073e46979d1d883a0e93c700sH7HNg3VeFlroq3c[] = {
/* columns rows colors chars-per-pixel */
"50 50 14 1 ",
"  c None",
". c #BEC3C9",
"X c #848F9A",
"o c #CCD0D5",
"O c #C5CACF",
"+ c #AEB5BC",
"@ c #8B96A0",
"# c #D4D7DB",
"$ c #929CA5",
"% c #646E79",
"& c #B6BCC3",
"* c #9FA7B0",
"= c #6F7983",
"- c #7B848D",
/* pixels */
"                                                  ",
"&&+++++++++++++++++++++++++++++++++++++++++++++&+*",
"$.O...........&&&&&&&&&&&&&&&&+&++++++++++++++&.$@",
"X+#oo################################o#oooooooo*X@",
"X*o.............O..O.O.OO.OOOOOOOOOoOoooooooo#o@X@",
"X*o..........................................oo@X@",
"X*o..........................................oo@X@",
"X*o..........................................oo@X@",
"X*o..........................................Oo@X@",
"X*o..........................................oo@X@",
"X$o..........................................Oo@X@",
"X$o..........................................Oo$X@",
"X$o..........................................Oo$X@",
"X$o..........................................Oo$X@",
"X$o..........................................Oo$X@",
"X@o..........................................Oo$X@",
"X@O..........................................Oo$X@",
"X@O..........................................Oo$X@",
"X@O..........................................Oo$X@",
"X@OO.........................................Oo$X@",
"X@OO.........................................Oo$X@",
"X@OO.........................................Oo$X@",
"X@O..........................................Oo$X@",
"XXOO.........................................Oo$X@",
"X@OO.........................................Oo$X@",
"XX.O.........................................Oo$X@",
"XX.O.........................................Oo$X@",
"X@.O.........................................Oo$X@",
"XX.O.........................................Oo$X@",
"XX.O.........................................Oo$X@",
"XX.O.....+&...................................o$X@",
"XX.O....O&&...................................o$X@",
"XX.O.....OO........................&++&......Oo$X@",
"XX.O...............................&+*&.......o$X@",
"XX&O...............................O.&O.......o$X@",
"XX&O................................OoO.......o$X@",
"XX&O..........................................o$X@",
"XX&o..........................................o$X@",
"XX&o..........................................o$X@",
"XX&o..........................................o$X@",
"XX&o..........................................o$X@",
"XX+o..........................................o$X@",
"XX+o..........................................o$X@",
"XX+o..........................................o$X@",
"XX+o.........................................OO$X@",
"XX+o.........O.OOOOOOOOOoooooooo###############$X@",
"X@&#ooooooo#oooooooooooooOoOOOOOO......&&&&&&..*X@",
"@**@XXXXXXX-----------==============%=%%=%%%%=$+@@",
"*@%%%%%%%%%%%%%%%%%%%%%%%%%%%%%%%%%%%%%%%%%%%%%X$$",
"                                                  "
};
