/* XPM */
static char *_ffb59d487184c0592f5eb417289ee0a7QlXQjlL9OqmmEBI[] = {
/* columns rows colors chars-per-pixel */
"50 50 71 1 ",
"  c #BEC3C9",
". c #BDC2C8",
"X c black",
"o c #848F9A",
"O c #BCC1C8",
"+ c #B8BDC4",
"@ c #8B959F",
"# c #AEB5BC",
"$ c #B5BAC2",
"% c #CCD0D5",
"& c #BAC0C6",
"* c #00FFEE",
"= c #C9CDD2",
"- c #2D4C6B",
"; c #909AA4",
": c #35587A",
"> c #B2B8C0",
", c #D2D6DA",
"< c #828D98",
"1 c #B0B6BE",
"2 c #C1C6CC",
"3 c #636D78",
"4 c #4A7DA5",
"5 c #2A4867",
"6 c #416C91",
"7 c #32506E",
"8 c #C6CAD0",
"9 c #386185",
"0 c #00FFF7",
"q c #315475",
"w c #A9AFB7",
"e c #4B6886",
"r c #C4C8CE",
"t c #4F83AB",
"y c #395D7E",
"u c #47779F",
"i c #42729B",
"p c #5387B0",
"a c #3E6689",
"s c #959EA8",
"d c #9BA3AD",
"f c #A1A8B1",
"g c #5A6E84",
"h c #46576C",
"j c #77828F",
"k c #D5D8DC",
"l c #D0D3D8",
"z c #527595",
"x c #274360",
"c c #4E6379",
"v c #04E3D4",
"b c #F98F49",
"n c #6491B5",
"m c #906A56",
"M c #2F738D",
"N c #576678",
"B c #09D1C9",
"V c #257F94",
"C c #677788",
"Z c #DF8549",
"A c #5E8BB0",
"S c #2B6C88",
"D c #00FBE6",
"F c #6C5E5B",
"G c #01F0DE",
"H c #14ABAF",
"J c #5B8DB4",
"K c #AD724E",
"L c #C4794A",
"P c #0FBDBB",
"I c #1A99A4",
/* pixels */
"XXXXXXXXXXXXXXXXXXXXXXXXXXXXXXXXXXXXXXXXXXXXXXXXXX",
"$+#############################################>#f",
"d2222    .OO&&&&+++++$$$$$>>>>>>1111111111####$Os@",
"ow,llllll,,,,,,,,,,,,,,,,,,,,,llllllll%%%%%%===fo@",
"<f%          2222222222rrrrrr888======%%%%%%lk%@o@",
"<f%                 ...OOOOOOO....    ...   .=%@o@",
"<f%              ..OO&&++++++&&O..           =%@o@",
"<d%            ..O&++$$>>>>>>$++&O..         =%;o@",
"<d%           .&&+$>1##wwdsfw#1>$+&O.        =%;o@",
"<d%         .O&+$1#ws<Cgc-57cC;w#>$+&.       =%;o@",
"<s%        .O+$1#f<c755-55555x5N@w1$+&.      =%;o@",
"<s%       .O+$1w<h-77q:yq7----5x5gd#>+&.     =%;o@",
"<s=2     .O+$#fg7:ya9999:yqq77---xh@#>+&.    8%;o@",
"<;=2    .O+$#dc7NmmN6aaa9ey::qq7--57@#$+O    8%;o@",
"<;=2    .&$1fc5embbLhiiiiiace9:qq7-xhf1$&.   8%;o@",
"<;=2   .&+1wg5:eKbbZhu44444iaegey::5xjw>+O   8%;o@",
"<;82  .O+>#j5qyeFLZm:4tppptt4ieegg7777;#$&.  8%;o@",
"o@82  .&+1dh7:96ahhqipp4u4tppt4u69:y:-Nw>+O  8%;o@",
"o@r2 .O+>#j5:ya6uui4t699SS9aupt4ui69::-@#$&. 8%;o@",
"o@r2 .&+1dh5:96iu4pt9MHBvvBIS6At4ui6y:-gw>+O.r%;o@",
"o@r2 .&$#gx57:6u4tt9VvD****DBMzJt4i6ayq7d1+O.r%;o@",
"o@r2.O+>fhx-:e6utp6Mv*******DBSpp4i9ce95@1+&.r%;o@",
"o@2r.O+1s55-qg64ttyPD**0000**DIzJ4:mLK37j#$&.r%;o@",
"o@2r.&+1@x5-qee4puSv**000000**B6nihZbbm:C#$&Or%;o@",
"o@2r.&+1ox57qee4pzVG**000000**vMnihZbbm:g#$&Or%;o@",
"o@2r.&+1ox-7qaeupzVG**000000**vMn4:FLmNqg#$&Or%;o@",
"oo2r.&+1@x-7qaeup4Mv**000000**B6ntiy:ea-C#$&Or%;o@",
"oo r.O+1s5-qqagutp9P***0000**DHznt4i6a:5j#$&.2%;o@",
"oo2r.O+>fh5qqegutpzVv********BMnp4uia9:-o1+&.2%;o@",
"oo r.O+>wNxq7ezi4tpaIv*****DBVtA44i6a:q7d1+O.2%;o@",
"oo.8 .&$#jx--egiu4pA6VPvGGvHMtnu4u6a9q-gw>+O.2%;o@",
"ooO8 .O++s75-796i4tpJ46MVVMznnt4u6ze7q-o#$&. 2%;o@",
"oo&8  .&&$o-579a6ui6itJAAAnnptu6gz6y:-cw1+O. 2%;o@",
"oo&8  .O+>#j-q:96a7Fh:utpptt4iezza:y:5C#$&O  2%;o@",
"oo&8   .&$1wg5q:9:mZZF9444446ez6ayy:-hd$+&.  2=;o@",
"oo+8    O&$#fc-qyhZbbKyuuui6eza9yy:77;+$&O.  2=;o@",
"oo+=     O+$#dc-qcKbbma6669e6ayyy:-7<#>+O.   2=;o@",
"oo+=     .O+$#fg-qNmFca999:y9::yq5h@#>+&.    2=;o@",
"oo$=      .&+$1w<h-::y::::q7yyy7-gd#>+&.     2=;o@",
"oo$=       .O+$>#fjc75----5x7-7N@w1>+&.      2=;o@",
"oo>=        .O&+$1#ws<CgNNgCgjsw#>$+&.       2=;o@",
"oo>=         ..&&+$>11##www###1>$+&O.        2=;o@",
"o<1=           .O&&++$$$>>>$$$++&O.           =so@",
"o<1=             ..O&&&&&&&&&&&O.             =so@",
"o<#=               .....OOOO....     .. ..    =so@",
"o<#=.                  22222rrrr888===%%%%lll,l;o@",
"oo>,===%%%%lllll,,,,kkkkkkkkkkkkkkkkk,,,,llll,=s<@",
"od1wwwwwwffffddddssss;;;@@@@@oo<<<<<<jjjjjjjjoww@@",
"sfj3333333333333333333333333333333333333333333jds@",
"XXXXXXXXXXXXXXXXXXXXXXXXXXXXXXXXXXXXXXXXXXXXXXXXXX"
};
