/* XPM */
static char *b98e214ca17e4efdad54e83ed0e048aaywFzrWvhnkZGtc56[] = {
/* columns rows colors chars-per-pixel */
"50 49 209 2 ",
"   c #0D0C0D",
".  c #1B120C",
"X  c #110F11",
"o  c #151315",
"O  c #181516",
"+  c #171218",
"@  c #19151A",
"#  c #1D1C1D",
"$  c #2D0C0D",
"%  c #3E1E08",
"&  c #241719",
"*  c #221D1D",
"=  c #2A1818",
"-  c #371919",
";  c #28241E",
":  c #3C2912",
">  c #32231D",
",  c #3F251C",
"<  c #372B1F",
"1  c #3B2C1E",
"2  c #1E1922",
"3  c #231C25",
"4  c #291F27",
"5  c #291F2A",
"6  c #202020",
"7  c #2A2423",
"8  c #2B2823",
"9  c #26222D",
"0  c #2C232D",
"q  c #2C2C2C",
"w  c #372726",
"e  c #332D25",
"r  c #352A2C",
"t  c #393226",
"y  c #2E2833",
"u  c #312533",
"i  c #332B35",
"p  c #3B2E34",
"a  c #352B3A",
"s  c #392E3D",
"d  c #3B323C",
"f  c #3F3F3F",
"g  c #431D0B",
"h  c #411313",
"j  c #5C1A1C",
"k  c #4D280F",
"l  c #4C300C",
"z  c #462B1D",
"x  c #552713",
"c  c #572C17",
"v  c #4B3318",
"b  c #5A371D",
"n  c #633E0F",
"m  c #692219",
"M  c #633719",
"N  c #6B321A",
"B  c #753717",
"V  c #7D3A1C",
"C  c #491C20",
"Z  c #472727",
"A  c #462D2C",
"S  c #542622",
"D  c #45352B",
"F  c #563124",
"G  c #583726",
"H  c #462C34",
"J  c #463432",
"K  c #493536",
"L  c #4C393B",
"P  c #543B3B",
"I  c #583F3F",
"U  c #6D2A29",
"Y  c #7B2323",
"T  c #7D2728",
"R  c #663929",
"E  c #613D38",
"W  c #68421A",
"Q  c #57472D",
"!  c #5D413F",
"~  c #624020",
"^  c #61433F",
"/  c #3D3444",
"(  c #3F3846",
")  c #413745",
"_  c #453A44",
"`  c #403748",
"'  c #443B4B",
"]  c #493E4E",
"[  c #513F45",
"{  c #4A3F50",
"}  c #4E404E",
"|  c #564246",
" . c #5A4242",
".. c #55434D",
"X. c #5C464D",
"o. c #4D4353",
"O. c #514556",
"+. c #594652",
"@. c #5C4955",
"#. c #554A5A",
"$. c #5A4D5C",
"%. c #654745",
"&. c #694946",
"*. c #644949",
"=. c #6A4B4B",
"-. c #634D56",
";. c #644F59",
":. c #6F5050",
">. c #65515C",
",. c #6C525A",
"<. c #755659",
"1. c #7C5B5C",
"2. c #5B4F60",
"3. c #5D5161",
"4. c #635564",
"5. c #6A5663",
"6. c #655867",
"7. c #6C5965",
"8. c #705760",
"9. c #745C66",
"0. c #7A5D64",
"q. c #755D68",
"w. c #7D6169",
"e. c #823B0D",
"r. c #813712",
"t. c #853C14",
"y. c #8D3E14",
"u. c #9A3E1A",
"i. c #832824",
"p. c #972626",
"a. c #9C3223",
"s. c #A72C2C",
"d. c #B82E2C",
"f. c #B13825",
"g. c #CC372F",
"h. c #CC3E2B",
"j. c #D13E2D",
"k. c #CA3432",
"l. c #D43834",
"z. c #DE3A37",
"x. c #DE3739",
"c. c #E03C36",
"v. c #E5393B",
"b. c #EA3C3A",
"n. c #F03D3D",
"m. c #84510F",
"M. c #92590D",
"N. c #964010",
"B. c #9C4415",
"V. c #855414",
"C. c #8A5611",
"Z. c #905816",
"A. c #A24515",
"S. c #A84719",
"D. c #A24E1C",
"F. c #B74F16",
"G. c #B7431D",
"H. c #AC5813",
"J. c #AB531B",
"K. c #BB5816",
"L. c #9F6111",
"P. c #B76F0E",
"I. c #A46512",
"U. c #AA6A1A",
"Y. c #B67012",
"T. c #BD4323",
"R. c #C45517",
"E. c #D65B1A",
"W. c #C96915",
"Q. c #D8671A",
"!. c #C37212",
"~. c #CA7D13",
"^. c #D97317",
"/. c #E7661B",
"(. c #EC691D",
"). c #F5671D",
"_. c #F4691D",
"`. c #FA6C1D",
"'. c #ED7D19",
"]. c #FA721C",
"[. c #F4791B",
"{. c #F97B1B",
"}. c #C94724",
"|. c #C84527",
" X c #DA462A",
".X c #E24C2B",
"XX c #EB4E2D",
"oX c #E95527",
"OX c #F35929",
"+X c #E14332",
"@X c #EC4534",
"#X c #EF4239",
"$X c #F46224",
"%X c #FA6621",
"&X c #815D5E",
"*X c #805E62",
"=X c #846165",
"-X c #8B6465",
";X c #83646A",
":X c #8B666A",
">X c #8E686B",
",X c #936A6B",
"<X c #996E6E",
"1X c #D98516",
"2X c #E88717",
"3X c #F98B19",
"4X c #EC9317",
"5X c #F19416",
"6X c #F69817",
/* pixels */
"6 6 6 6 6 6 6 6 7 6 6 6 6 6 6 6 6 6 6 6 6 6 6 6 6 6 6 6 6 6 6 6 6 6 6 6 6 7 6 6 6 6 6 6 6 6 6 6 6 6 ",
"6 6 6 6 6 6 6 6 7 6 6 6 6 6 6 6 6 6 6 6 6 6 6 6 6 6 6 6 6 6 6 6 6 7 6 6 6 6 6 6 6 6 6 6 6 6 6 6 6 6 ",
"6 6 6 6 6 6 6 6 6 6 6 6 q 7 6 6 6 6 6 6 6 6 6 6 6 6 6 6 6 6 6 6 6 f 6 6 6 6 6 6 6 6 6 6 6 6 6 6 6 6 ",
"6 6 6 6 6 6 6 6 7 q 6 6 6 6 6 6 6 6 6 6 6 6 6 6 6 6 6 6 6 6 6 6 6 6 6 6 6 q 6 6 6 6 6 6 6 6 6 6 6 6 ",
"6 6 6 6 6 6 6 6 6 6 6 6 6 6 6 6 6 6 6 6 6 6 6 6 6 6 6 6 6 6 6 6 6 6 6 6 6 6 6 6 6 6 6 6 6 6 6 6 6 e ",
"6 6 6 6 6 6 6 6 6 6 6 6 6 6 6 6 6 6 6 t 6 6 6 6 6 6 6 7 6 6 6 6 6 6 6 6 6 6 6 6 6 6 6 6 6 6 6 6 6 6 ",
"6 6 6 6 6 6 6 6 6 6 6 6 6 6 6 6 6 6 6 t 6 6 6 6 6 6 6 6 6 6 6 6 6 6 6 6 6 6 6 6 6 6 6 6 6 6 6 6 6 6 ",
"6 6 6 7 q 6 6 6 6 6 6 6 6 6 6 6 6 6 6 6 6 6 6 e 6 6 6 6 6 6 6 6 6 6 6 6 6 6 6 6 6 7 q 6 6 6 6 6 6 6 ",
"6 6 6 6 6 6 6 6 6 6 6 6 6 # # # v b b z * # # # # 6 6 6 6 6 6 6 6 6 6 6 6 6 6 6 6 6 6 6 6 6 6 6 6 6 ",
"6 6 6 6 6 6 e 6 6 6 6 6 # @ 2 7 L.'.Q.V K p 0 3 2 J * * * 6 6 6 6 6 6 6 6 6 6 7 6 6 6 6 6 6 6 6 6 6 ",
"6 6 6 6 6 6 6 6 6 6 6 # O 5 o.#.l '.t.[ <X>Xq.$.} ,X=.*.L 6 6 6 6 6 6 6 6 6 6 6 6 6 6 6 6 6 6 6 6 6 ",
"6 6 6 6 6 6 6 6 6 6 # @ 3 a o.3.G W.R.7 w.:X:X7.-X<X:X@.-.I * 6 6 6 6 6 6 6 6 6 6 6 6 6 6 6 6 6 6 6 ",
"6 6 6 6 6 6 6 6 6 6 # + u ' o.9.:.V.W.@ #.3.4.4.q.;X-X4.#.-X .# 6 7 6 6 6 6 6 6 6 6 6 6 6 6 6 6 6 6 ",
"6 6 6 6 6 6 6 6 6 6 + s a / 8.-XW ^._.t.9 ] o.q.7.6.;X:X4.#.:XP > 6 6 6 6 6 6 6 6 6 6 6 6 6 6 6 6 6 ",
"6 6 6 6 6 6 6 6 6 # * 9.o./ | M 1X{.(.t./ o./ ;.0.-X7.-X&X*.=.V }.U & * 6 6 6 6 6 6 6 6 6 6 6 6 6 6 ",
"6 6 6 6 6 6 6 6 6 O i 8.$.G V.1X{.(.y._ 4.$.] ] ` <.-X*XR t.y. Xz.T p # O # 6 6 6 6 6 6 6 6 6 6 6 6 ",
"6 6 6 6 6 6 6 6 6   / r v !.5X{.).B.%.w.4.O.O.3.' } -XR R.).}.h - =.0.' y o # 6 6 6 6 6 6 6 6 6 6 6 ",
"6 6 6 6 6 6 6 6 *   0 M.5X3X`.).OX.XN 1.;X-Xw.4.4.@.&.B.). X- / 0 <.-X6.2.] r # 6 6 6 6 6 6 7 e 6 6 ",
"6 6 6 6 6 6 6 6 ; n M.6X1XC.R.).$X@X.XN ! &Xq.6.6.<X-XF G.Z #.3.] =X,X;X9.:X,XL # # 6 6 6 6 6 6 6 6 ",
"6 6 6 6 6 6 6 6 1 1X5X~.W i A R.).OXb. XA.R <.,.,.1. .u.h.C $.4.,.*X@.@.-.-X,X0.i # 6 6 6 6 6 6 6 6 ",
"6 6 6 6 6 6 6 6 Z.4XC.> i / ] A A.E.XXb.@X}.N M M R G }.l.S 1.>X:X;.3.O.` -.,X>X-.* # 6 6 6 6 6 6 6 ",
"6 6 6 6 6 6 6 6 U.m. .../ / / ] 0 F E.XXv.b.XXXXXX/.G.#Xp.p ,.,X,Xw.4.4.O.@.,X,X-.r # 6 6 6 6 6 6 6 ",
"6 6 6 6 6 6 6 6 : &.>X4.#.` / #.3.o.c OXv.v.x.x.v.@X#Xk.C ] ' -.;X-X-X9.3.;.,X,XO.a @ # 6 6 6 6 6 6 ",
"6 6 6 6 6 6 6 6 o 1.9.4.$.` O.5.d i x oXv.s.- - s.v.b.k.S $.3.+.w.7.-X:X>X,X,X7.4.] @ # 6 6 6 6 6 6 ",
"6 6 6 6 6 6 6 6 o X.:X9.$.] 2.P B r.T.Y Y Z o.5.P p.v.b.}.F p -.0.L p K ! -X<X;X9.) @ # 6 6 6 6 6 6 ",
"6 6 6 6 6 6 6 6 X a -.=X@.3.#.& E.oXm =.X.O.' #.7.E p.b.z.}.S.z , D.K.K.J.E &X,X>XJ & 6 6 6 6 6 6 6 ",
"6 6 6 6 6 6 6 6 X a / ' #.9.w.$.x .Xj ) 6.4.$.' #.$ b.c.i.Y d.+X(.!.P.P.!.H.k *.^ y.b 6 6 6 6 6 6 6 ",
"6 6 6 6 6 6 6 6 # 3 / ` #.7.>X0.k $Xg.@ 5.7.4.#./ $ n.d.A | A Y V t 9 9 r I.2Xe.N./.M 6 6 6 6 6 6 6 ",
"6 6 6 6 6 6 6 6 #   a / ] 3.7.;.n [.j.= ;.;X7.4.' r p.g.Z 5.q.| ` $.$.{ ] K b !.^.J.< 6 6 6 6 6 6 6 ",
"6 6 6 6 6 6 6 6 # o 3 a s ' $.* ~.{.XXs.H 0.,X8.y i m $Xy.d 4.6.#.] o.] ] ' o.D ~ W 6 6 6 6 6 6 6 6 ",
"6 6 6 6 6 6 6 6 6 # o 3 a / ' . 2X].`.OXf.H 9.| Y i.F.B.g 5 3.q.,.@.3.4.3.#.o.] 7 ; 6 6 6 6 7 8 6 6 ",
"6 6 6 6 6 6 6 6 6 6 # o 9 / 2 I.].`.^.% u.f.H 3 l.%XB.d ( s $.7.:X>X;X4.w.-X7./   6 6 6 6 6 6 6 6 6 ",
"6 6 6 6 6 6 6 6 6 6 6 # @ 7 L.3X].'.l ] 0 A.a.p.$X(.B ] o.` ` ] $.>.*X0.....@.@ # 6 6 6 6 6 6 6 6 6 ",
"6 6 6 6 6 6 6 6 6 6 6 6 # n 2X`.{.2X: ' #.K u.XX).R.9 O.O.' / / / s s s a 5 @ # 6 6 6 6 6 6 6 6 6 6 ",
"6 6 6 6 6 7 6 6 6 6 6 6 6 < J.].2XC.r ` ] ' w F.E.g s / / a / / / / a 5 3 @ # 6 6 7 6 6 6 6 6 6 6 6 ",
"6 6 6 6 6 6 6 6 6 6 6 6 7 7 e U.Y.7 / / a s w t.- + / s u 0 s / / i 3 o o # 6 6 6 6 6 6 6 6 6 6 6 6 ",
"6 6 6 6 6 6 6 6 6 6 6 6 6 6 6 > V.v @ 0 0 4 A.S.& @ + + @ @ + @ @ o o # 6 6 6 6 6 6 6 6 6 6 6 6 6 6 ",
"6 6 6 6 6 6 6 6 6 6 6 6 6 6 6 6 < v O X o t.Q.D.= O O O O O O O # # 6 6 6 6 6 6 6 6 6 6 6 6 6 6 6 6 ",
"6 6 6 6 6 6 6 6 6 6 6 6 6 6 6 6 6 6 * # # 1 z > 6 6 6 6 6 6 6 6 6 6 6 6 6 6 6 6 6 6 6 6 6 6 6 6 6 6 ",
"6 6 6 6 6 6 t 6 6 6 6 6 6 6 6 6 6 6 6 6 6 6 6 6 6 6 6 6 6 6 6 6 6 6 6 6 6 6 6 7 7 6 6 6 6 6 6 6 6 6 ",
"6 6 6 7 q 6 6 6 6 6 6 6 6 6 6 6 6 6 6 6 6 6 6 6 6 6 6 6 6 6 6 6 6 6 6 6 6 6 6 6 6 7 q 6 6 6 6 6 6 6 ",
"6 6 6 6 6 6 6 6 6 6 6 6 6 6 6 6 6 6 6 7 6 6 6 7 6 6 6 6 6 6 6 6 6 6 6 6 6 6 6 6 6 6 6 6 6 6 6 6 6 6 ",
"6 6 6 6 6 6 6 6 6 6 6 6 6 6 6 6 6 6 6 Q 6 6 6 6 6 6 7 7 6 6 6 6 6 6 6 6 6 6 6 6 6 6 6 6 6 6 6 6 6 6 ",
"6 6 6 6 6 6 6 6 6 6 6 6 6 6 6 6 6 6 6 6 6 6 6 6 6 6 6 6 6 6 6 6 6 6 6 6 6 6 6 6 6 6 6 6 6 6 6 6 6 6 ",
"6 6 6 6 6 6 6 6 q q 6 6 6 6 6 6 6 6 6 6 6 6 6 6 6 6 6 6 6 6 6 6 6 6 6 6 6 q 6 6 6 6 6 6 6 6 6 6 6 e ",
"6 6 6 6 6 6 6 6 6 6 6 6 6 6 6 6 6 6 6 6 6 6 6 6 6 6 6 6 6 6 6 6 6 6 6 6 6 6 6 6 6 6 6 6 6 6 6 6 6 6 ",
"6 6 6 6 6 6 6 6 6 6 6 6 q q 6 6 6 6 6 6 6 6 6 6 6 6 6 6 6 6 6 6 6 f 7 6 6 6 6 6 6 6 6 6 6 6 6 6 6 6 ",
"6 6 6 6 6 6 6 6 7 6 6 6 6 6 6 6 6 6 6 6 6 6 6 6 6 6 6 6 6 6 6 6 6 6 6 6 6 6 6 6 6 6 6 6 6 6 6 6 6 6 ",
"6 6 6 6 6 6 6 6 7 6 6 6 6 6 6 6 6 6 6 6 6 6 6 6 6 6 6 6 6 6 6 6 6 6 6 6 6 6 6 6 6 6 6 6 6 6 6 6 6 6 "
};
