/* XPM */
static char *_6a7e430851d451ab912bc8799360372okIpuNWeDAdB7aHv[] = {
/* columns rows colors chars-per-pixel */
"50 49 92 1 ",
"  c #202020",
". c #292522",
"X c #2C2925",
"o c #21242A",
"O c #27282D",
"+ c #2C2B2C",
"@ c #332D25",
"# c #363025",
"$ c #393226",
"% c #35312C",
"& c #3E352B",
"* c gray19",
"= c #3F3F3F",
"- c #40372D",
"; c #44392C",
": c #4B3E2D",
"> c #57472D",
", c #5C472D",
"< c #5F492C",
"1 c #624B2C",
"2 c #694F2C",
"3 c #73552C",
"4 c #7E5B2C",
"5 c #835E2C",
"6 c #8F662C",
"7 c #90652B",
"8 c #9E6E2C",
"9 c #A16F2C",
"0 c #A4712B",
"q c #AB762C",
"w c #B57C2C",
"e c #BA7F2B",
"r c #A87830",
"t c #BF812B",
"y c #C3842C",
"u c #C7882D",
"i c #CD8A2C",
"p c #D38E2C",
"a c #D6922F",
"s c #DE942D",
"d c #CA923A",
"f c #D79430",
"g c #DB9631",
"h c #DE9932",
"j c #DD9D3A",
"k c #E0962D",
"l c #E69A2F",
"z c #E49B30",
"x c #EB9D30",
"c c #E7A135",
"v c #EDA335",
"b c #E5A23C",
"n c #EDA738",
"m c #EEA93A",
"M c #F4AA37",
"N c #F4AD3A",
"B c #F6B03C",
"V c #FAB43D",
"C c #DBA245",
"Z c #E1A94A",
"A c #F5B645",
"S c #FAB742",
"D c #F6B844",
"F c #F8B843",
"G c #FEB941",
"H c #F8BB47",
"J c #FEBB44",
"K c #FEBC47",
"L c #FABF4A",
"P c #FBBF4F",
"I c #F0BA57",
"U c #FAC14B",
"Y c #FEC049",
"T c #FEC04E",
"R c #FEC54D",
"E c #FDC750",
"W c #FEC951",
"Q c #FECB56",
"! c #FBC95F",
"~ c #FCCA62",
"^ c #F0C76B",
"/ c #F8CD6D",
"( c #FCD06A",
") c #FED571",
"_ c #FDD877",
"` c #F6D57A",
"' c #FEDB79",
"] c #FBD97C",
"[ c #FBDD83",
"{ c #FEDF81",
"} c #FDE187",
"| c #FEE389",
/* pixels */
"        .                            .            ",
"        .                        .                ",
"            +.                   =                ",
"        .O                           +            ",
"                                                 @",
"                   $       .                      ",
"                   $                              ",
"   .+                  @                 .+       ",
"                                                  ",
"      @                                .          ",
"                                                  ",
"                                                  ",
"            ..        ooooo      .                ",
"                   o+%:405;+o                     ",
"                oo&2rdCZbgpw1o                    ",
"             Xoo;5wj^`[}]/Ibu<o X.                ",
"             .o7yhBS||||||}/mu+o.                 ",
"             ooyNGGG|||||||}Pg0oo             .@  ",
"             ooiVGGG}|||||||~By%o                 ",
"             oOpVGGG{|||||||}Sg5o                 ",
"         #   o;pVGGG)||||||||!Nw&o  .X            ",
"             o3pGGGGT||||||||}Vh3o                ",
"            oo6hGGGGK||||||||(Vnq%o               ",
"            oo9mGGGGK}||||||_SVBf<o               ",
"             o8cGGGGJ_''''')FVVVc9+               ",
"             o;pVGGGGQQQQQQAvvNVvw+o              ",
"             oowcGGGYWWWWWLxxxxxzw+o              ",
"         ;    o;aVGGWWWWWENxxxxxp1ooXX            ",
"              o+qnGGWWWWWHxxxxxlq%o               ",
"               o<fVNDUWWRvxxxxlp2o                ",
"               o%qcxxvnFVMxxxki5+o            .X  ",
"                o:0ipslMVVMlpy:oo                 ",
"             X   oo+,8euuyte4Ooo+.                ",
"                  oooo%::;-%Ooo .                 ",
"     .              oooooooo             .        ",
"            ..                                    ",
"                                                  ",
"                                                  ",
"                                                  ",
"      $                                ..         ",
"   .*                                    .+       ",
"                   .   .                          ",
"                   >      ..                      ",
"                                                  ",
"        OO                           +           @",
"                                                  ",
"            +O                   =.               ",
"        .                                         ",
"        .                                         "
};
