/* XPM */
static char *_04800bb888d4a08f4b242ca092dbc10vkuOx7Xm8mbeuWdK[] = {
/* columns rows colors chars-per-pixel */
"50 49 173 2 ",
"   c #0E0F0F",
".  c #0F1111",
"X  c #141414",
"o  c #1A1614",
"O  c #17191A",
"+  c #1C1D1D",
"@  c #27150E",
"#  c #2F170E",
"$  c #301609",
"%  c #3B1009",
"&  c #3D1B0B",
"*  c #231510",
"=  c #2A1712",
"-  c #261917",
";  c #231D1B",
":  c #2C1C19",
">  c #341B14",
",  c #3A1D16",
"<  c #351F1A",
"1  c #3A1E19",
"2  c #24201F",
"3  c #2B221E",
"4  c #34231D",
"5  c #3B221D",
"6  c #3B281E",
"7  c #1E1F20",
"8  c #1F2020",
"9  c #202020",
"0  c #2A2522",
"q  c #2C2825",
"w  c #272728",
"e  c #292728",
"r  c #272829",
"t  c #2B2C2C",
"y  c #332522",
"u  c #3A2521",
"i  c #342A25",
"p  c #3B2A25",
"a  c #312C2B",
"s  c #3B2E2A",
"d  c #363025",
"f  c #393226",
"g  c #35312F",
"h  c #3D312E",
"j  c #2E3131",
"k  c #333333",
"l  c #3C3534",
"z  c #3D3930",
"x  c #373839",
"c  c #3C3C3C",
"v  c #441D0B",
"b  c #561509",
"n  c #471712",
"m  c #421A14",
"M  c #4B1E15",
"N  c #521F16",
"B  c #5A1F15",
"V  c #631A0B",
"C  c #6B1F0A",
"Z  c #57220F",
"A  c #5F220E",
"S  c #452312",
"D  c #4D2415",
"F  c #4F2D16",
"G  c #43241D",
"H  c #4B251C",
"J  c #432A1E",
"K  c #4C2B1B",
"L  c #552114",
"P  c #5B2516",
"I  c #522619",
"U  c #59251A",
"Y  c #532B1C",
"T  c #592B1C",
"R  c #59331F",
"E  c #62240C",
"W  c #6F250C",
"Q  c #762709",
"!  c #762A0D",
"~  c #7D2D09",
"^  c #672314",
"/  c #6E2617",
"(  c #662C15",
")  c #612418",
"_  c #642E1C",
"`  c #6B2D1E",
"'  c #772211",
"]  c #722810",
"[  c #762C18",
"{  c #6D361E",
"}  c #723A1C",
"|  c #422720",
" . c #442C25",
".. c #4A2C22",
"X. c #422E29",
"o. c #4A2F29",
"O. c #4C3125",
"+. c #44322C",
"@. c #4C342B",
"#. c #4A3D29",
"$. c #533324",
"%. c #5C3121",
"&. c #5D3B27",
"*. c #51352A",
"=. c #5D3529",
"-. c #573B2F",
";. c #423531",
":. c #473A35",
">. c #493A34",
",. c #413B3A",
"<. c #533A30",
"1. c #632D20",
"2. c #64362A",
"3. c #773C29",
"4. c #57472D",
"5. c #41403F",
"6. c #554035",
"7. c #51433C",
"8. c #58453A",
"9. c #5F483D",
"0. c #6C4028",
"q. c #654734",
"w. c #6A4B39",
"e. c #7A4939",
"r. c #3F4040",
"t. c #424242",
"y. c #434444",
"u. c #454646",
"i. c #4B4443",
"p. c #484949",
"a. c #574841",
"s. c #5D514D",
"d. c #5F5854",
"f. c #614C43",
"g. c #6A5045",
"h. c #60534E",
"j. c #6E5249",
"k. c #795343",
"l. c #605753",
"z. c #616161",
"x. c #717171",
"c. c #842D0E",
"v. c #8D2A09",
"b. c #99370C",
"n. c #94380C",
"m. c #9F3D0B",
"M. c #8A3512",
"N. c #AF2D0A",
"B. c #A6320E",
"V. c #A93C0C",
"C. c #B13E0C",
"Z. c #B83E0B",
"A. c #A23412",
"S. c #A53A11",
"D. c #B73C1A",
"F. c #C83807",
"G. c #C73D0D",
"H. c #CB3E10",
"J. c #85411B",
"K. c #9F4618",
"L. c #B3480F",
"P. c #A54C1B",
"I. c #BC4213",
"U. c #B74911",
"Y. c #C2470D",
"T. c #CF4315",
"R. c #815646",
"E. c #867670",
"W. c #9F8F87",
"Q. c #A89992",
"!. c #ADA6A4",
"~. c #C3BBB6",
"^. c #C4C3C3",
/* pixels */
"9 9 9 9 9 9 9 9 0 9 9 9 9 9 9 9 9 9 9 9 9 9 9 9 9 9 9 9 9 9 9 9 9 9 9 9 9 0 9 9 9 9 9 9 9 9 9 9 9 9 ",
"9 9 9 9 9 9 9 9 0 9 9 9 9 9 9 9 9 9 9 9 9 9 9 9 9 9 9 9 9 9 9 9 9 w 9 9 9 9 9 9 9 9 9 9 9 9 9 9 9 9 ",
"9 9 9 9 9 9 9 9 9 9 9 9 t w 9 9 9 9 9 9 9 9 9 9 9 9 9 9 9 9 9 9 9 c 9 9 9 9 9 9 9 9 9 9 9 9 9 9 9 9 ",
"9 9 9 9 9 9 9 9 w e 9 9 9 9 9 9 9 9 9 9 9 9 9 9 9 9 9 9 9 9 9 9 9 9 9 9 9 t 9 9 9 9 9 9 9 9 9 9 9 9 ",
"9 9 9 9 9 9 9 9 9 9 9 9 9 9 9 9 9 9 9 9 9 9 9 9 w k e 9 9 9 9 9 9 9 9 9 9 9 9 9 9 9 9 9 9 9 9 9 9 i ",
"9 9 9 9 9 9 9 9 9 9 9 9 9 9 9 9 9 9 9 f 9 9 9 9 + a X.0 9 9 9 9 9 9 9 9 9 9 9 9 9 9 9 9 9 9 9 9 9 9 ",
"9 9 9 9 9 9 9 9 9 9 9 9 9 9 9 9 9 9 9 f 9 9 9 + l 0 M.T 9 9 9 9 9 9 9 9 9 9 9 9 9 9 9 9 9 9 9 9 9 9 ",
"9 9 9 w t 9 9 9 9 9 9 9 9 9 9 9 9 9 9 9 9 9 9 z i.3 V./ 9 9 9 9 9 9 9 9 9 9 9 9 9 w t 9 9 9 9 9 9 9 ",
"9 9 9 9 9 9 9 9 9 9 9 9 9 9 9 9 9 9 9 9 9 9 + t c 2 c.` 9 9 9 9 9 9 9 9 9 9 9 9 9 9 9 9 9 9 9 9 9 9 ",
"9 9 9 9 9 9 i 9 9 9 9 9 9 9 9 9 9 9 9 9 0 5 ; V q 2 I ' G y w 9 9 9 9 9 9 9 9 0 9 9 9 9 9 9 9 9 9 9 ",
"9 9 9 9 9 9 9 9 9 9 9 9 9 9 9 9 9 9 9 9 @.D M B.3 9 a b 1 u h + 9 9 9 9 9 9 9 9 9 9 9 9 9 9 9 9 9 9 ",
"9 9 9 9 9 9 9 9 9 9 9 9 9 9 9 9 9 9 9 X X.^ L C 9 9 e % 3 n y 9 9 9 9 9 9 9 9 9 9 9 9 9 9 9 9 9 9 9 ",
"9 9 9 9 9 9 9 9 9 9 9 9 0 0 9 9 9 9 9 w ,.5 y = r.u.5.G G 5 t 9 9 0 9 9 9 9 9 9 9 9 9 9 9 9 9 9 9 9 ",
"9 9 9 9 9 9 9 9 9 9 9 9 9 9 9 9 9 9 9 k : : 5 8.k u.k q.: 0 $.t 9 9 9 9 9 9 9 9 9 9 9 9 9 9 9 9 9 9 ",
"9 9 9 9 9 9 9 9 9 9 9 9 9 9 9 9 9 9 + e k i O.7.c y.c w.: 5 9 w + 9 9 9 9 9 9 9 9 9 9 9 9 9 9 9 9 9 ",
"9 9 9 9 9 9 9 9 9 9 9 9 9 q 9 9 9 9 9 <.>.q G s c y.x 6.6 l >.t 3 0 9 9 9 9 9 9 9 9 9 9 9 9 9 9 9 9 ",
"9 9 9 9 9 9 9 9 9 9 9 9 9 9 9 9 9 9 j ( 9 + 6 0 c u.k i p 0 ;.%.+ 9 9 9 9 9 9 9 9 9 9 9 9 9 9 9 9 9 ",
"9 9 9 9 9 9 9 9 9 9 9 9 9 9 9 9 9 9 t  .8 8 k t t p.c k k r y J.9 9 9 9 9 9 9 9 9 9 9 9 9 9 0 i 9 9 ",
"9 9 9 9 9 9 9 9 9 9 9 9 9 9 9 9 9 9 k 6 9 t j X O p.r.t t e 3 } e 9 9 9 9 9 9 9 9 9 9 9 9 9 9 9 9 9 ",
"9 9 9 9 9 9 9 9 9 9 9 9 9 9 9 9 9 9 t 9 + X 8 X X p.c + + e ; O.t 9 9 9 9 9 9 9 9 9 9 9 9 9 9 9 9 9 ",
"9 9 9 9 9 9 9 9 9 d 9 9 9 9 9 9 9 9 e t w X 9 w X w t.+ + O t k 9 9 9 9 0 q 9 9 9 9 9 9 9 9 9 9 9 9 ",
"9 9 9 9 9 9 9 9 9 9 9 9 9 9 9 9 + + 8 - 4 e j x w 9 t.t w . O w + 9 9 9 9 9 9 9 9 9 9 9 9 9 9 9 9 9 ",
"9 9 9 9 9 9 9 9 9 9 9 9 9 9 9 9 #.O N.F.Q + O + O O 9 O O ~ n.] q + 9 9 9 9 9 9 9 9 9 9 9 9 9 9 9 9 ",
"9 9 9 9 9 9 9 9 9 9 9 9 9 9 9 9 t 7 ! > t q , K D F S = 0 w S A.> 9 9 9 9 9 9 9 9 9 9 9 9 9 9 9 9 9 ",
"9 9 9 9 9 9 9 9 9 9 9 9 9 9 s &.e w # $ j _ G.S.U.L.n.Z._ k @ W + t >.9 9 9 9 9 9 9 9 9 9 9 9 9 9 9 ",
"9 9 9 9 9 9 9 9 9 9 9 + 9 @.K 4 9 8 O t + P I.R.h.s.k.C.( r ; * 9 9 J *.w + 9 9 9 9 9 9 9 9 9 9 9 9 ",
"9 9 9 9 9 9 9 9 9 9 9 7 X...9 2 3 + 8 j   v I.f.z.z.g.Y.v   j 8 O + 9 4 $.e 9 9 9 9 9 9 9 9 9 9 9 9 ",
"9 9 9 9 9 9 9 9 9 f e 6 *.p + e t 8 9 + k X b.K.d.l.P.m.o + e 8 + 8 O 9 p +.0 9 9 9 9 9 9 9 9 9 9 9 ",
"9 9 9 9 9 9 9 + 9 e ,.< G - , k j w e k + X v S.e.3.C.v X w k 9 9 j e 4 y  ...a 9 9 9 9 9 9 9 9 9 9 ",
"9 9 9 9 9 9 9 w +.u  .i 5 T Y q k k k k 9 t . A T.H.E X w X c k j j q T , < | x a 9 9 9 9 9 9 9 9 9 ",
"9 9 9 9 9 9 9 0 H ; u Y T *.k t w k e r.e w O o [ I o + 9 c t k r k + Y T G i %.4 t 9 9 9 9 0 q 9 9 ",
"9 9 9 9 9 9 9 9 9 m ` _ +.k k c e x k 8 w r t + x k O j 9 X t x t t e t @._ P p 3  .w 9 9 9 9 9 9 9 ",
"9 9 9 9 9 9 9 9 M U I x c c k k t g k 8 O O X Z : & E + 9 9 r t t w c k k +.T / ; + 9 9 9 9 9 9 9 9 ",
"9 9 9 9 9 9 2 4 H  .c + k k g +.$.J t e + 9 9 E D.v.. + X X t k 6 a k k x k l T B 3 9 9 9 9 9 9 9 9 ",
"9 9 9 9 9 0 5 Y j.!.x.t :...T I H 3 9 ; + 9 j O 1.- t w + + + ; D K J l c 9 e c ..H 2 9 9 9 9 9 9 9 ",
"9 9 9 9 9 t s a.Q.j.;.P _ T ..o < o.q 4 R &.e 8 + + + i Y 2 + 9 ; , H T ..l x ^.E.G M 3 9 9 9 9 9 9 ",
"9 9 9 9 w k 2 J G B ) U 1 i :.- X.;.=.>.t w 9 9 9 9 9 w k 0.{ 2.=.> u D U P G  .W.~.9.a 9 9 9 9 9 9 ",
"9 9 9 9 9 w k p p 9 9 9 0 4 +.+. .9 w + 9 9 9 9 9 9 9 9 9 w k t a y T i 4 1 N M 5 -.k t e 9 9 9 9 9 ",
"9 9 9 9 9 9 w 9 9 9 9 2 i X.q w w 9 9 9 9 9 9 9 9 9 9 9 9 9 9 9 0 h a G p ; 9 9 4 G k e 9 9 9 9 9 9 ",
"9 9 9 9 9 9 f 9 9 9 9 9 9 9 9 9 9 9 9 9 9 9 9 9 9 9 9 9 9 9 9 9 9 9 e a a 9 9 0 0 9 9 9 9 9 9 9 9 9 ",
"9 9 9 w k 9 9 9 9 9 9 9 9 9 9 9 9 9 9 9 9 9 9 9 9 9 9 9 9 9 9 9 9 9 9 9 9 9 9 9 9 w t 9 9 9 9 9 9 9 ",
"9 9 9 9 9 9 9 9 9 9 9 9 9 9 9 9 9 9 9 0 9 9 9 0 9 9 9 9 9 9 9 9 9 9 9 9 9 9 9 9 9 9 9 9 9 9 9 9 9 9 ",
"9 9 9 9 9 9 9 9 9 9 9 9 9 9 9 9 9 9 9 4.9 9 9 9 9 9 0 0 9 9 9 9 9 9 9 9 9 9 9 9 9 9 9 9 9 9 9 9 9 9 ",
"9 9 9 9 9 9 9 9 9 9 9 9 9 9 9 9 9 9 9 9 9 9 9 9 9 9 9 9 9 9 9 9 9 9 9 9 9 9 9 9 9 9 9 9 9 9 9 9 9 9 ",
"9 9 9 9 9 9 9 9 e e 9 9 9 9 9 9 9 9 9 9 9 9 9 9 9 9 9 9 9 9 9 9 9 9 9 9 9 t 9 9 9 9 9 9 9 9 9 9 9 i ",
"9 9 9 9 9 9 9 9 9 9 9 9 9 9 9 9 9 9 9 9 9 9 9 9 9 9 9 9 9 9 9 9 9 9 9 9 9 9 9 9 9 9 9 9 9 9 9 9 9 9 ",
"9 9 9 9 9 9 9 9 9 9 9 9 t e 9 9 9 9 9 9 9 9 9 9 9 9 9 9 9 9 9 9 9 c w 9 9 9 9 9 9 9 9 9 9 9 9 9 9 9 ",
"9 9 9 9 9 9 9 9 0 9 9 9 9 9 9 9 9 9 9 9 9 9 9 9 9 9 9 9 9 9 9 9 9 9 9 9 9 9 9 9 9 9 9 9 9 9 9 9 9 9 ",
"9 9 9 9 9 9 9 9 0 9 9 9 9 9 9 9 9 9 9 9 9 9 9 9 9 9 9 9 9 9 9 9 9 9 9 9 9 9 9 9 9 9 9 9 9 9 9 9 9 9 "
};
