/* XPM */
static char *e60e2be9b618419ca7d5e3c8eb019dfdeG29dICAnRcfFQ1I[] = {
/* columns rows colors chars-per-pixel */
"50 49 28 1 ",
"  c #202020",
". c #242221",
"X c #272422",
"o c #252525",
"O c #282322",
"+ c #292522",
"@ c #2B2823",
"# c #2C2823",
"$ c #2F2A24",
"% c gray16",
"& c #2F2F2F",
"* c #322723",
"= c #302B24",
"- c #332E25",
"; c #342E25",
": c #3F2D25",
"> c #363025",
", c #393226",
"< c #3D3427",
"1 c #313131",
"2 c #373737",
"3 c #3F3F3F",
"4 c #493C2A",
"5 c #4F412B",
"6 c #54442C",
"7 c #5E4C2F",
"8 c #414141",
"9 c gray34",
/* pixels */
"        +                            X            ",
"        X                        o                ",
"            &o                   8                ",
"        o%                           &            ",
"                                                 =",
"                   ,       .                      ",
"                   ,                              ",
"   o&                  -                 o&       ",
"                                                  ",
"      ;                                +.         ",
"                                                  ",
"                                                  ",
"            ++                  .X                ",
"     .                                   .        ",
"     .                                   .     .  ",
"             +         *        #X             .. ",
"                       .        .                 ",
"                    o9   o                    +;  ",
"                                                  ",
"                                                  ",
"         >                          +#            ",
"         .                                        ",
"               X5             ;                   ",
"                                                  ",
"                                                  ",
"                                                  ",
"               X6             >                   ",
"         4                          =-            ",
"                                                  ",
"                                                  ",
"                     2   o                    X#  ",
"                     2                            ",
"             @        *:.       $X                ",
"                                .              .. ",
"     O                                   +        ",
"            ++                  ..                ",
"                                                  ",
"                                                  ",
"                                                  ",
"      <                                +X         ",
"   o1                                    o&       ",
"                   X   +                          ",
"                   7      XX                      ",
"                                                  ",
"        o%                           &           ;",
"                                                  ",
"            &%                   3o               ",
"        +                            .            ",
"        +                                         "
};
