/* XPM */
static char *fbd68fb00f64438ef1a791062406fdfaDO0sk88weU0A2wPn[] = {
/* columns rows colors chars-per-pixel */
"50 49 171 2 ",
"   c #202021",
".  c #292523",
"X  c #2B2823",
"o  c #20242A",
"O  c #2C2C2C",
"+  c #342D25",
"@  c #363027",
"#  c #3A3326",
"$  c #363129",
"%  c #202730",
"&  c #202933",
"*  c #202D3C",
"=  c gray19",
"-  c #3F3F3F",
";  c #403B32",
":  c #57472D",
">  c #1F2F40",
",  c #1F3042",
"<  c #1F344A",
"1  c #202F40",
"2  c #203244",
"3  c #20354B",
"4  c #21384E",
"5  c #223A53",
"6  c #233E5A",
"7  c #25415E",
"8  c #264463",
"9  c #294665",
"0  c #2B4966",
"q  c #274768",
"w  c #2A4769",
"e  c #2C4C6B",
"r  c #314E6C",
"t  c #2E506F",
"y  c #31506F",
"u  c #3C546E",
"i  c #2B4E71",
"p  c #2E5274",
"a  c #2F5478",
"s  c #325474",
"d  c #3A5573",
"f  c #375877",
"g  c #385875",
"h  c #32577B",
"j  c #345A7C",
"k  c #3B5C7B",
"l  c #54565F",
"z  c #685D5D",
"x  c #735B53",
"c  c #7E6357",
"v  c #70615E",
"b  c #404E62",
"n  c #4E5563",
"m  c #545862",
"M  c #5B5B63",
"N  c #415A75",
"B  c #495E76",
"V  c #435E7B",
"C  c #5C616C",
"Z  c #4C627B",
"A  c #776E6E",
"S  c #606774",
"D  c #7A7476",
"F  c #97674D",
"G  c #97684C",
"H  c #846554",
"J  c #AD724E",
"K  c #B5754D",
"L  c #B9764D",
"P  c #BF794C",
"I  c #A57151",
"U  c #A97250",
"Y  c #C77A49",
"T  c #CC7D4A",
"R  c #D07F4B",
"E  c #DE8449",
"W  c #E1864A",
"Q  c #EC8A49",
"!  c #F68F4A",
"~  c #F7904B",
"^  c #FA914B",
"/  c #355E82",
"(  c #395F82",
")  c #2A6D89",
"_  c #356185",
"`  c #3B6285",
"'  c #376289",
"]  c #3B658B",
"[  c #306B89",
"{  c #3D698F",
"}  c #2A738D",
"|  c #3B708D",
" . c #3E6C93",
".. c #267790",
"X. c #267C92",
"o. c #367490",
"O. c #367A93",
"+. c #446482",
"@. c #496380",
"#. c #466986",
"$. c #4D6986",
"%. c #41678B",
"&. c #456A8D",
"*. c #4C6C8A",
"=. c #546A83",
"-. c #536E89",
";. c #426D93",
":. c #457195",
">. c #4A7394",
",. c #437D97",
"<. c #42729A",
"1. c #44749C",
"2. c #45759E",
"3. c #49769B",
"4. c #477E99",
"5. c #4D799D",
"6. c #567593",
"7. c #5B7791",
"8. c #5A7994",
"9. c #537798",
"0. c #557C9C",
"q. c #5B7E9D",
"w. c #647C95",
"e. c #4677A0",
"r. c #4779A2",
"t. c #497DA6",
"y. c #4E7FA7",
"u. c #4A7FA8",
"i. c #527EA3",
"p. c #228296",
"a. c #208F9D",
"s. c #1D95A1",
"d. c #17A5AB",
"f. c #14AFB2",
"g. c #10BAB8",
"h. c #4F81A7",
"j. c #4B80A9",
"k. c #4D81AA",
"l. c #4D83AC",
"z. c #4E85AE",
"x. c #5581A5",
"c. c #5C80A0",
"v. c #5484A9",
"b. c #5A85A9",
"n. c #5B89AD",
"m. c #4F86B0",
"M. c #5287B0",
"N. c #558AB1",
"B. c #5C8DB3",
"V. c #5F91B7",
"C. c #5E92B8",
"Z. c #618BAC",
"A. c #708BA2",
"S. c #6A90AF",
"D. c #6491B4",
"F. c #6597BC",
"G. c #0CC6C0",
"H. c #0BCCC4",
"J. c #07D7CC",
"K. c #09D3C9",
"L. c #07DDD0",
"P. c #08DCD0",
"I. c #05E1D2",
"U. c #03E8D7",
"Y. c #03EBD9",
"T. c #01F2DE",
"R. c #01F5E2",
"E. c #00FAE6",
"W. c #00FEEC",
"Q. c #00FFF3",
"!. c #00FFFA",
/* pixels */
"                .                                                         .                         ",
"                .                                                 .                                 ",
"                        O .                                       -                                 ",
"                . O                                                       O                         ",
"                                                                                                  + ",
"                                      @               .                                             ",
"                                      $         o o o .                                             ",
"      . O                               & 1 < 5 5 5 5 3 * &                       . O               ",
"                                  o 1 5 9 e a *.=.=.V k s 8 5 * o                                   ",
"            +                 o * 5 w p h j #.v T Y z +.h s i q 5 * &         .                     ",
"                          o * 5 6 p h j / %.k L ~ ~ K k { / / h i 7 5 * o                           ",
"                        o , 6 9 0 g j ` { :.+.L ! ! K k ;.' ` / s 0 9 6 > o                         ",
"                      o * 6 9 e s r (  .;.<.` l P L n ` <.;.' k y t 0 r 6 *                         ",
"                      & 6 9 e e k =.{ 2.2.r.y.' p p ` y.r.2.<.` $.s e e r 5 &                       ",
"                    o 4 9 e p s +.$.2.r.t.k.z.N.k.v.M.l.k.t.r.<.k f a e e 8 3 o                     ",
"                    * 7 e e s j 7.%.t.j.z.B.i.>.;.;.>.x.M.z.j.r.{ +.j p e e 6 &                     ",
"                  o 5 0 s p h j @.r.k.m.v.' / } p.p.) j ` n.m.j.2.-.k h p e 0 4                     ",
"                  * 8 e s s j A.` j.m.Z.h ..K.T.E.E.T.G.) j n.m.j.k 8.j s e r 6 %           . +     ",
"                  3 q s s j 8.d t.z.v.j s.T.E.E.W.W.E.E.U.X.( B.z.r.N #.h s e 9 2                   ",
"                o 5 e g s *.-.2.k.N.{ p.T.E.W.Q.Q.Q.W.W.E.U.) >.N.j.<.-.#.f t e 4                   ",
"                o 5 e y +.w.;.t.l.v.( K.E.W.Q.Q.Q.Q.Q.Q.W.E.g.' v.l.t.%.7.k s e 4 o                 ",
"                o 4 0 9 V %.2.t.z.5.} Y.E.W.Q.Q.!.!.Q.Q.W.E.I./ x.z.t.<.k r 9 6 3 o                 ",
"                  4 f p ] ;.2.u.m.:.s.R.W.Q.Q.!.!.!.!.Q.Q.E.U./ x.v.t.2. .' ( p 3 o                 ",
"                  4 k p {  .2.t.m.3.a.R.W.Q.Q.!.!.!.!.Q.Q.E.U./ b.z.t.2. .` ` p 3 o                 ",
"                o 4 p h ]  .2.t.z.v.[ U.E.W.Q.Q.!.!.Q.Q.W.E.L.` n.z.t.2. ._ +.p 2                   ",
"                  2 p h '  .{ <.k.B.%.H.E.W.W.Q.Q.Q.Q.Q.W.E.d.&.V.k.<.:.;._ ( i 1                   ",
"                  * w h / r b 0 j z.5._ Y.E.W.W.W.Q.W.W.E.I./ S.z./ 0 b k ` h 9 &                   ",
"                  ; 6 f B K Q E n { C.;.X.I.R.E.E.E.E.R.J._ 9.C.{ m E Q J Z j 5 o                   ",
"                    4 k A W ^ ! I / l.F.>.o.f.K.L.P.H.d.| q.F.k./ U ! ^ E D k 2                     ",
"                    & 0 C R ! Q c ` t.z.C.Z.0.,.O.O.4.c.D.V.z.t.' H Q ! T S 0 o                     ",
"                    o 4 V M G x N :.r.t.l.M.N.N.D.D.N.v.v.h.t.r.;.u x F M N 3 o             . X     ",
"                      & 7 k -.q.;.;.<.r.t.u.k.l.z.l.3.x.k.r.e.<. .;.6.6.` 6 &                       ",
"                        * 9 k s _ {  .<.<.2.2.2.2.3.2.2.2.2.<. .{ _ / a 8 *                         ",
"                        o 2 q k h / ` j +.+.$.$.$.$.-.*.*.>.( ] / j j 8 1 o                         ",
"          .               o 2 8 p h / d +.#.>.>.:.:.>.>.&.*.r j s s 8 * o         .                 ",
"                        . . o * 6 i q k +.j ` ` / k k j f k d s e 5 & o                             ",
"                                o 3 5 s k k y k ` j j j j h s 5 2 o                                 ",
"                                  o * 6 0 s f s s s s p t q 5 *                                     ",
"                                      o * 2 4 5 5 5 5 4 2 * o                                       ",
"            #                               o o o o o o                       . .                   ",
"      . =                                                                         . O               ",
"                                      .       .                                                     ",
"                                      :             . .                                             ",
"                                                                                                    ",
"                O O                                                       O                       + ",
"                                                                                                    ",
"                        O O                                       - .                               ",
"                .                                                                                   ",
"                .                                                                                   "
};
