/* XPM */
static char *_855d4cf1757492ced35a8bf20209a88n5Iy77wG23DEURIv[] = {
/* columns rows colors chars-per-pixel */
"50 50 9 1 ",
"  c #5D6668",
". c #566364",
"X c #687173",
"o c #495456",
"O c #7F8586",
"+ c #727A7B",
"@ c #787F80",
"# c black",
"$ c #858A8C",
/* pixels */
"+ ............................................  .#",
"X@X.........................................XXXoo#",
"XX@X..................................... X++.ooo#",
"XXXO+ ................................. X@@Xooooo#",
"XXX+O@                                +OO+.oooooo#",
"XXXX+$$OOOOOOOOOOOOOOOOOOOOOOOOOOOOOO$$@ oooooooo#",
"XXXXX+$@+++++++++++@+@+@+@+@+@+@+++++O$Xooooooooo#",
"XXXXX@$X                             +$Xooooooooo#",
"XXXXX@$X                             X$Xooooooooo#",
"XXXXX@$X                             X$Xooooooooo#",
"XXXXX@$X                             X$Xooooooooo#",
"X+XXX@$                              X$Xooooooooo#",
"XXXXXO$                              X$+ooooooooo#",
"XXXXXO$                              X$+ooooooooo#",
"XXXXXO$                               $+ooooooooo#",
"XXXXXOO                               $+ooooooooo#",
"XX+XXOO                              XO+ooooooooo#",
"XXXXXOO                               O+ooooooooo#",
"XXXXXOO                               O@ooooooooo#",
"XXXXXOO                               O@ooooooooo#",
"XXXXX$@                               O@ooooooooo#",
"XX+XX$@                               @Oooooooooo#",
"XXXXX$@                               @Oooooooooo#",
"XXXXX$@                               @Oooooooooo#",
"XXXX+$+                               +O.oooooooo#",
"XXXXX$+                               +O.oooooooo#",
"XXXX+$+                               +O.oooooooo#",
"XX+XX$+                              .+O.oooooooo#",
"XXXX+$+                               XO.oooooooo#",
"XXXX+$X                               XO.oooooooo#",
"XXXX+$X                               XO.oooooooo#",
"XXXX+$X                               XO oooooooo#",
"XXXX+$X                               XO oooooooo#",
"XXXX+$X                              .XO oooooooo#",
"XXXX+$X                               XO oooooooo#",
"XXXX+$X                                O oooooooo#",
"XXXX+$X                               XO oooooooo#",
"XXXX+$X                                OXoooooooo#",
"XXXX+$                                 OXoooooooo#",
"XXXX@$                                 @Xoooooooo#",
"XXXX@$                                X@Xoooooooo#",
"XXXX@$++++++++@@@@@@@@@@O@OOOOOOOOOOOOO$Xoooooooo#",
"XXXXO$OOOOOO@O@@@@@@@@@@@+++++++++++++X+O ooooooo#",
"XXX@O   ...... .........................X@ oooooo#",
"XXXOX....................................X@ ooooo#",
"XX@+...................................... + oooo#",
"X++.........................................X ooo#",
"X+ ..........................................X oo#",
"X ............................................ .o#",
"+XXXXXXXXXXXXXXXXXXXXXXXXXXXXXXXXXXXXXXXXXXXXXXXX#"
};
